<?xml version="1.0" encoding="iso-8859-1"?>
<!-- Uploaded to: SVG Repo, www.svgrepo.com, Generator: SVG Repo Mixer Tools -->
<svg version="1.1" id="Layer_1" xmlns="http://www.w3.org/2000/svg" xmlns:xlink="http://www.w3.org/1999/xlink" 
	 viewBox="0 0 512 512" xml:space="preserve">
<path style="fill:#38ABEC;" d="M456.952,392.818H80.701c-18.891,0-34.205-15.314-34.205-34.205V84.977
	c0-18.891,15.314-34.205,34.205-34.205h376.251c18.891,0,34.205,15.314,34.205,34.205v273.637
	C491.157,377.504,475.843,392.818,456.952,392.818z"/>
<path style="fill:#3E92DD;" d="M482.605,367.165H89.253c-9.446,0-17.102-7.658-17.102-17.102V59.324c0-2.64,0.309-5.208,0.875-7.676
	c-15.193,3.486-26.529,17.079-26.529,33.329v273.637c0,18.891,15.314,34.205,34.205,34.205h376.251
	c16.25,0,29.844-11.336,33.329-26.529C487.813,366.856,485.246,367.165,482.605,367.165z"/>
<circle style="fill:#3C6168;" cx="320.134" cy="221.795" r="128.267"/>
<circle style="fill:#6D888E;" cx="320.134" cy="221.795" r="94.063"/>
<path style="fill:#54747B;" d="M337.236,298.756c-51.949,0-94.063-42.113-94.063-94.063c0-21.615,7.295-41.523,19.552-57.408
	c-22.292,17.201-36.654,44.176-36.654,74.51c0,51.949,42.113,94.063,94.063,94.063c30.334,0,57.31-14.363,74.51-36.654
	C378.759,291.461,358.851,298.756,337.236,298.756z"/>
<g>
	<rect x="183.315" y="392.818" style="fill:#9DB0B3;" width="51.307" height="76.96"/>
	<rect x="303.031" y="392.818" style="fill:#9DB0B3;" width="51.307" height="76.96"/>
</g>
<path style="fill:#FDD349;" d="M422.747,503.983H114.906l0,0c0-28.336,22.971-51.307,51.307-51.307h205.228
	C399.777,452.676,422.747,475.647,422.747,503.983L422.747,503.983z"/>
<path style="fill:#FCB82D;" d="M191.866,452.676h-25.653c-28.336,0-51.307,22.971-51.307,51.307l0,0h25.653l0,0
	C140.56,475.647,163.53,452.676,191.866,452.676z"/>
<path style="fill:#6D888E;" d="M439.85,50.772h-68.409V25.119c0-9.446,7.656-17.102,17.102-17.102h34.205
	c9.446,0,17.102,7.656,17.102,17.102V50.772z"/>
<path style="fill:#54747B;" d="M414.196,8.017h-25.653c-9.446,0-17.102,7.658-17.102,17.102v25.653h25.653V25.119
	C397.094,15.674,404.75,8.017,414.196,8.017z"/>
<g>
	<rect x="20.843" y="136.284" style="fill:#FDD349;" width="25.653" height="51.307"/>
	<rect x="20.843" y="256" style="fill:#FDD349;" width="25.653" height="51.307"/>
	<circle style="fill:#FDD349;" cx="123.457" cy="179.04" r="42.756"/>
</g>
<circle style="fill:#3C6168;" cx="446.263" cy="335.098" r="14.965"/>
<g>
	<circle style="fill:#B6C4C6;" cx="354.338" cy="196.142" r="25.653"/>
	<circle style="fill:#B6C4C6;" cx="367.165" cy="243.173" r="12.827"/>
</g>
<path d="M456.952,42.756h-9.086V25.119C447.866,11.268,436.598,0,422.747,0h-34.205c-13.851,0-25.119,11.268-25.119,25.119v17.637
	h-26.188c-4.428,0-8.017,3.588-8.017,8.017s3.588,8.017,8.017,8.017h119.716c14.441,0,26.188,11.747,26.188,26.188v273.637
	c0,14.441-11.747,26.188-26.188,26.188H80.701c-14.44,0-26.188-11.747-26.188-26.188V84.977c0-14.441,11.748-26.188,26.188-26.188
	h222.33c4.428,0,8.017-3.588,8.017-8.017s-3.588-8.017-8.017-8.017H80.701c-23.28,0-42.221,18.941-42.221,42.221v43.29H20.843
	c-4.427,0-8.017,3.588-8.017,8.017v51.307c0,4.428,3.589,8.017,8.017,8.017H38.48v52.376H20.843c-4.427,0-8.017,3.588-8.017,8.017
	v51.307c0,4.428,3.589,8.017,8.017,8.017H38.48v43.29c0,23.28,18.941,42.221,42.221,42.221h94.597v43.825h-9.086
	c-32.711,0-59.324,26.612-59.324,59.324c0,4.428,3.589,8.017,8.017,8.017h85.511c4.427,0,8.017-3.588,8.017-8.017
	s-3.589-8.017-8.017-8.017h-76.751c3.771-20.052,21.414-35.273,42.546-35.273h205.228c21.132,0,38.775,15.221,42.546,35.273H234.622
	c-4.427,0-8.017,3.588-8.017,8.017s3.589,8.017,8.017,8.017h188.125c4.428,0,8.017-3.588,8.017-8.017
	c0-32.711-26.612-59.324-59.324-59.324h-9.086v-43.825h94.597c23.28,0,42.221-18.941,42.221-42.221V84.977
	C499.173,61.697,480.232,42.756,456.952,42.756z M379.457,42.756V25.119c0-5.01,4.076-9.086,9.086-9.086h34.205
	c5.01,0,9.086,4.076,9.086,9.086v17.637H379.457z M28.86,179.574v-35.273h9.62v35.273H28.86z M28.86,299.29v-35.273h9.62v35.273
	H28.86z M295.015,400.835v43.825h-52.376v-43.825H295.015z M191.332,444.66v-43.825h35.273v43.825H191.332z M346.322,444.66h-35.273
	v-43.825h35.273V444.66z"/>
<path d="M320.134,85.511c-75.147,0-136.284,61.136-136.284,136.284s61.136,136.284,136.284,136.284s136.284-61.136,136.284-136.284
	S395.281,85.511,320.134,85.511z M320.134,342.046c-66.307,0-120.251-53.945-120.251-120.251s53.944-120.251,120.251-120.251
	c66.306,0,120.251,53.945,120.251,120.251S386.439,342.046,320.134,342.046z"/>
<path d="M320.134,119.716c-56.287,0-102.079,45.792-102.079,102.079s45.792,102.079,102.079,102.079s102.079-45.792,102.079-102.079
	S376.42,119.716,320.134,119.716z M320.134,307.841c-47.446,0-86.046-38.6-86.046-86.046s38.6-86.046,86.046-86.046
	s86.046,38.6,86.046,86.046S367.58,307.841,320.134,307.841z"/>
<path d="M123.457,128.267c-27.995,0-50.772,22.777-50.772,50.772s22.777,50.772,50.772,50.772s50.772-22.777,50.772-50.772
	S151.453,128.267,123.457,128.267z M123.457,213.779c-19.155,0-34.739-15.583-34.739-34.739s15.584-34.739,34.739-34.739
	s34.739,15.583,34.739,34.739S142.612,213.779,123.457,213.779z"/>
<path d="M140.56,171.023c-4.427,0-8.017,3.588-8.017,8.017c0,5.01-4.076,9.086-9.086,9.086c-5.01,0-9.086-4.076-9.086-9.086
	c0-4.428-3.589-8.017-8.017-8.017c-4.427,0-8.017,3.588-8.017,8.017c0,13.851,11.268,25.119,25.119,25.119
	s25.119-11.268,25.119-25.119C148.576,174.611,144.987,171.023,140.56,171.023z"/>
<path d="M123.457,179.574c4.427,0,8.017-3.588,8.017-8.017v-8.195c0-4.428-3.589-8.017-8.017-8.017
	c-4.427,0-8.017,3.588-8.017,8.017v8.195C115.441,175.986,119.03,179.574,123.457,179.574z"/>
<path d="M423.282,335.098c0,12.672,10.309,22.981,22.981,22.981s22.981-10.309,22.981-22.981c0-12.672-10.309-22.981-22.981-22.981
	S423.282,322.426,423.282,335.098z M446.263,328.15c3.831,0,6.948,3.117,6.948,6.948c0,3.831-3.117,6.948-6.948,6.948
	s-6.948-3.117-6.948-6.948C439.315,331.267,442.432,328.15,446.263,328.15z"/>
<path d="M157.662,265.086H97.804c-4.427,0-8.017,3.588-8.017,8.017s3.589,8.017,8.017,8.017h59.858c4.427,0,8.017-3.588,8.017-8.017
	S162.089,265.086,157.662,265.086z"/>
<path d="M157.662,299.29H97.804c-4.427,0-8.017,3.588-8.017,8.017c0,4.428,3.589,8.017,8.017,8.017h59.858
	c4.427,0,8.017-3.588,8.017-8.017C165.678,302.878,162.089,299.29,157.662,299.29z"/>
</svg>