<?xml version="1.0" encoding="iso-8859-1"?>
<!-- Uploaded to: SVG Repo, www.svgrepo.com, Generator: SVG Repo Mixer Tools -->
<svg height="800px" width="800px" version="1.1" id="Layer_1" xmlns="http://www.w3.org/2000/svg" xmlns:xlink="http://www.w3.org/1999/xlink" 
	 viewBox="0 0 448.071 448.071" xml:space="preserve">
<g transform="translate(0 -1020.36)">
	<g shape-rendering="auto" image-rendering="auto" color-rendering="auto" color-interpolation="sRGB">
		<path style="fill:#29A3EC;" d="M80.047,1250.317c36.294,0,65.435,29.438,65.435,66.096c0,36.664-29.141,66.1-65.435,66.1
			s-65.435-29.436-65.435-66.1C14.612,1279.753,43.753,1250.317,80.047,1250.317z"/>
		<path style="fill:#5A3392;" d="M85.284,1396.194c27.319-1.814,52.673-17.592,65.844-43c17.562-33.881,8.658-75.586-21.219-99.344
			c-29.878-23.758-72.543-23.094-101.656,1.6c-3.393,2.834-3.846,7.883-1.011,11.275s7.882,3.846,11.275,1.012
			c0.027-0.023,0.053-0.045,0.08-0.068c23.36-19.809,57.37-20.346,81.344-1.279c23.973,19.064,31.056,52.262,16.969,79.438
			c-14.087,27.176-45.324,40.553-74.75,32s-48.615-36.582-45.906-67.063c0.459-4.395-2.732-8.33-7.127-8.787
			c-4.395-0.459-8.329,2.732-8.788,7.127c-0.009,0.084-0.016,0.168-0.022,0.252c-3.377,38.004,20.711,73.189,57.375,83.846
			c9.166,2.664,18.488,3.604,27.594,3L85.284,1396.194z"/>
	</g>
	<path style="fill:#5A3392;" d="M7.693,1283.88c0-4.418,3.582-8,8-8l0,0c4.418,0,8,3.582,8,8l0,0c0,4.418-3.582,8-8,8l0,0
		C11.274,1291.88,7.693,1288.298,7.693,1283.88L7.693,1283.88z"/>
	<g shape-rendering="auto" image-rendering="auto" color-rendering="auto" color-interpolation="sRGB">
		<path style="fill:#3CDEF6;" d="M80.048,1265.19c-28.127,0-50.712,22.813-50.712,51.225c0,28.414,22.585,51.227,50.712,51.227
			s50.712-22.813,50.712-51.227C130.76,1288.003,108.175,1265.19,80.048,1265.19z"/>
		<path style="fill:#FFFFFF;" d="M56.554,1321.452c2.585,0.438,4.791,2.113,5.906,4.486c3.409,6.83,5.82,9.018,12.283,12.166
			c3.979,1.957,5.619,6.77,3.662,10.748c-1.957,3.98-6.769,5.619-10.748,3.662c-8.661-4.217-15.01-10.398-19.488-19.371
			c-2.103-3.887-0.657-8.742,3.23-10.844c1.575-0.852,3.391-1.152,5.156-0.85L56.554,1321.452z"/>
		<path style="fill:#29A3EC;" d="M368.036,1250.327c36.294,0,65.435,29.438,65.435,66.096c0,36.664-29.141,66.1-65.435,66.1
			s-65.435-29.436-65.435-66.1C302.601,1279.763,331.742,1250.327,368.036,1250.327z"/>
		<path style="fill:#5A3392;" d="M373.284,1396.194c27.319-1.814,52.673-17.592,65.844-43c17.562-33.881,8.627-75.586-21.25-99.344
			c-29.878-23.758-72.511-23.063-101.625,1.623c-3.489,2.711-4.12,7.738-1.409,11.227c2.711,3.49,7.738,4.121,11.227,1.408
			c0.182-0.141,0.357-0.289,0.526-0.445c23.36-19.809,57.37-20.346,81.344-1.279c23.973,19.064,31.056,52.262,16.969,79.438
			c-14.087,27.176-45.324,40.553-74.75,32c-29.426-8.553-48.615-36.582-45.906-67.063c0.459-4.395-2.732-8.33-7.127-8.787
			c-4.395-0.459-8.329,2.732-8.788,7.127c-0.009,0.084-0.016,0.168-0.022,0.252c-3.377,38.004,20.711,73.189,57.375,83.846
			c9.166,2.664,18.488,3.604,27.594,3V1396.194z"/>
	</g>
	<path style="fill:#5A3392;" d="M295.681,1283.888c0-4.418,3.582-8,8-8l0,0c4.418,0,8,3.582,8,8l0,0c0,4.418-3.582,8-8,8l0,0
		C299.263,1291.888,295.681,1288.306,295.681,1283.888L295.681,1283.888z"/>
	<g shape-rendering="auto" image-rendering="auto" color-rendering="auto" color-interpolation="sRGB">
		<path style="fill:#3CDEF6;" d="M368.036,1265.198c-28.127,0-50.712,22.813-50.712,51.225c0,28.414,22.585,51.227,50.712,51.227
			s50.712-22.813,50.712-51.227C418.748,1288.011,396.164,1265.198,368.036,1265.198z"/>
		<g>
			<path style="fill:#FFFFFF;" d="M344.543,1321.46c2.585,0.438,4.791,2.113,5.906,4.486c3.409,6.83,5.82,9.018,12.283,12.166
				c3.979,1.957,5.619,6.77,3.662,10.748c-1.957,3.98-6.769,5.619-10.748,3.662c-8.661-4.217-15.01-10.398-19.488-19.371
				c-2.103-3.887-0.657-8.742,3.23-10.844c1.575-0.852,3.391-1.152,5.156-0.85L344.543,1321.46z"/>
			<g>
				<path style="fill:#5A3392;" d="M200.159,1132.413c-0.462,0.014-0.922,0.066-1.375,0.16l-55.75,7.938
					c-4.376,0.621-7.419,4.672-6.798,9.049c0.621,4.375,4.672,7.418,9.048,6.797l55.781-7.969c4.384-0.555,7.487-4.559,6.931-8.943
					c-0.502-3.961-3.846-6.945-7.838-6.994L200.159,1132.413z"/>
				<path style="fill:#5A3392;" d="M366.534,1092.413c-1.261,0.004-2.503,0.307-3.625,0.881l-38.375,18.656
					c-3.336,1.633-5.109,5.348-4.281,8.969l44.063,193.5c0.801,4.346,4.974,7.219,9.319,6.418c4.345-0.803,7.219-4.975,6.417-9.32
					c-0.039-0.211-0.087-0.422-0.143-0.629l-42.656-187.344l32.656-15.873c4.005-1.867,5.737-6.627,3.87-10.633
					c-1.313-2.816-4.138-4.617-7.245-4.619V1092.413z"/>
				<path style="fill:#5A3392;" d="M336.127,1172.413c-0.198-0.008-0.396-0.008-0.594,0l-147.688,9.125
					c-2.075,0.139-4.014,1.08-5.406,2.625L74.127,1303.007c-2.974,3.268-2.737,8.328,0.531,11.303
					c1.582,1.439,3.676,2.186,5.813,2.072l167.375-9.154c2.375-0.119,4.573-1.287,6-3.189l88.594-118.873
					c2.642-3.543,1.912-8.555-1.631-11.197c-1.354-1.01-2.993-1.564-4.682-1.586V1172.413z M319.315,1189.475l-76.063,102.031
					l-144.156,7.875l92.969-102.031L319.315,1189.475z"/>
				<path style="fill:#5A3392;" d="M168.221,1140.413c-4.418-0.1-8.08,3.4-8.18,7.816c-0.031,1.346,0.279,2.678,0.899,3.871
					l71.875,143.813c1.954,3.963,6.752,5.592,10.715,3.637c3.963-1.953,5.592-6.752,3.637-10.715
					c-0.013-0.025-0.026-0.053-0.039-0.078l-71.875-143.813C173.948,1142.231,171.231,1140.479,168.221,1140.413z"/>
			</g>
		</g>
	</g>
</g>
</svg>