<?xml version="1.0" encoding="iso-8859-1"?>
<!-- Uploaded to: SVG Repo, www.svgrepo.com, Generator: SVG Repo Mixer Tools -->
<svg height="800px" width="800px" version="1.1" id="Layer_1" xmlns="http://www.w3.org/2000/svg" xmlns:xlink="http://www.w3.org/1999/xlink" 
	 viewBox="0 0 512 512" xml:space="preserve">
<path style="fill:#F11C35;" d="M430.502,190.427c-48.795-15.115-106.291-16.178-195.18-71.351l-18.96,26.814l134.958,212.307
	h141.617v-83.069C492.936,239.179,464.84,201.062,430.502,190.427z"/>
<path style="fill:#FF3845;" d="M420.832,221.644c-11.189-3.465-23.635-6.282-36.812-9.264
	c-40.931-9.263-91.542-20.716-159.034-61.32c-1.883-1.133-4.883-2.93-8.624-5.17L107.452,299.91l352.803,53.345v-78.128
	C460.255,253.527,441.465,228.035,420.832,221.644z"/>
<polygon style="fill:#FFE280;" points="8.17,293.973 8.17,392.925 40.851,392.925 62.638,277.455 "/>
<polygon style="fill:#FFBC2E;" points="503.83,347.303 460.255,332.068 471.149,392.925 503.83,392.925 "/>
<g>
	<path style="fill:#FFCF2B;" d="M339.82,325.515l-205.06-53.331l-93.908,16.164v104.577h105.75
		c0-24.443,19.409-39.621,43.131-33.729l152.829,33.729h128.588v-49.964L339.82,325.515z"/>
	<polygon style="fill:#FFCF2B;" points="8.17,261.292 8.17,293.973 40.851,293.973 51.745,277.632 40.851,261.292 	"/>
</g>
<polygon style="fill:#FB9637;" points="471.149,314.622 460.255,330.962 471.149,347.303 503.83,347.303 503.83,314.622 "/>
<path style="fill:#FFA931;" d="M361.607,314.622c-10.475,0-27.157-2.771-37.07-6.158L204.51,267.45
	c-9.913-3.387-26.595-6.158-37.07-6.158H40.851v32.681H167.44c6.873,0,20,2.181,26.503,4.403l120.027,41.013
	c13.42,4.586,33.454,7.914,47.637,7.914h109.542v-32.681H361.607V314.622z"/>
<path d="M503.83,306.452h-2.723v-31.325c0-39.362-30.589-80.859-68.187-92.505c-12.707-3.936-25.907-6.923-39.882-10.085
	c-41.379-9.364-88.28-19.978-153.407-60.402c-3.673-2.28-8.485-1.305-10.98,2.224l-98.12,138.763H8.17
	c-4.512,0-8.17,3.658-8.17,8.17v131.633c0,4.512,3.658,8.17,8.17,8.17h138.431c4.512,0,8.17-3.658,8.17-8.17
	c0-9.253,3.385-16.997,9.532-21.804c6.148-4.807,14.48-6.226,23.459-3.996c0.07,0.017,0.139,0.034,0.209,0.049L340.8,400.904
	c0.578,0.127,1.169,0.192,1.76,0.192H503.83c4.512,0,8.17-3.658,8.17-8.17v-78.302C512,310.11,508.342,306.452,503.83,306.452z
	 M343.452,384.755L191.593,351.24c-13.924-3.428-27.188-0.94-37.355,7.009c-8.204,6.416-13.442,15.645-15.174,26.506H16.34V269.462
	h151.1c9.589,0,25.355,2.619,34.428,5.719l120.027,41.013c10.826,3.699,28.27,6.597,39.712,6.597h65.967
	c4.512,0,8.17-3.658,8.17-8.17s-3.658-8.17-8.17-8.17h-65.967c-9.589,0-25.355-2.619-34.428-5.719l-120.028-41.013
	c-10.826-3.699-28.27-6.597-39.712-6.597h-16.897l87.038-123.09c64.183,38.604,112.651,49.571,151.849,58.442
	c13.656,3.091,26.554,6.01,38.654,9.757c30.725,9.517,56.683,44.73,56.683,76.896v31.325h-24.511c-4.512,0-8.17,3.658-8.17,8.17
	s3.658,8.17,8.17,8.17h35.404v16.34H361.607c-13.18,0-32.524-3.214-44.995-7.475l-120.028-41.013
	c-7.416-2.534-21.308-4.841-29.145-4.841H68.881c-4.512,0-8.17,3.658-8.17,8.17s3.658,8.17,8.17,8.17h98.559
	c5.958,0,18.224,2.038,23.861,3.964l120.027,41.013c14.164,4.84,35.309,8.353,50.278,8.353H495.66v29.281H343.452z"/>
</svg>