<?xml version="1.0" encoding="iso-8859-1"?>
<!-- Uploaded to: SVG Repo, www.svgrepo.com, Generator: SVG Repo Mixer Tools -->
<svg xmlns="http://www.w3.org/2000/svg" xmlns:xlink="http://www.w3.org/1999/xlink" version="1.1" id="Layer_1"  viewBox="0 0 489.286 489.286" xml:space="preserve" width="512" height="512">
<g>
	<rect x="224.612" y="89.959" style="fill:#B5A593;" width="37.819" height="216.856"/>
	<g>
		<path style="fill:#C8C6CB;" d="M262.431,97.459h-37.818c-3.219,0-6.079-2.054-7.107-5.104l-24.85-73.707    c-0.771-2.289-0.394-4.809,1.015-6.771c1.409-1.962,3.676-3.125,6.092-3.125h87.519c2.416,0,4.683,1.163,6.092,3.125    c1.409,1.962,1.787,4.482,1.015,6.771l-24.851,73.707C268.509,95.405,265.649,97.459,262.431,97.459z M229.998,82.459h27.046    l19.793-58.707h-66.632L229.998,82.459z"/>
	</g>
	<polygon style="fill:#C8C6CB;" points="319.947,293.405 319.947,439.763 243.521,489.286 167.096,439.763 167.096,293.405  "/>
	<polygon style="fill:#AEADB1;" points="294.314,293.405 294.314,424.798 220.28,472.772 245.764,489.286 322.19,439.763    322.19,293.405  "/>
	<g>
		<path style="fill:#AEADB1;" d="M258.38,418.794c-4.142,0-7.5-3.358-7.5-7.5v-54.967c0-4.058-3.301-7.359-7.359-7.359    s-7.359,3.301-7.359,7.359v54.967c0,4.142-3.358,7.5-7.5,7.5s-7.5-3.358-7.5-7.5v-54.967c0-12.329,10.03-22.359,22.359-22.359    s22.359,10.03,22.359,22.359v54.967C265.88,415.436,262.522,418.794,258.38,418.794z"/>
	</g>
	<g>
		<rect x="167.096" y="293.405" style="fill:#FF3069;" width="155.094" height="26.937"/>
	</g>
	<rect x="167.096" style="fill:#59575C;" width="149.922" height="25.688"/>
	<polygon style="opacity:0.23;fill:#564A3D;" points="245.1,97.459 245.1,270.724 224.612,270.724 224.612,293.405 245.1,293.405    262.431,293.405 262.431,270.724 262.431,97.459  "/>
</g>















</svg>