<?xml version="1.0" encoding="iso-8859-1"?>
<!-- Uploaded to: SVG Repo, www.svgrepo.com, Generator: SVG Repo Mixer Tools -->
<svg height="800px" width="800px" version="1.1" id="Layer_1" xmlns="http://www.w3.org/2000/svg" xmlns:xlink="http://www.w3.org/1999/xlink" 
	 viewBox="0 0 512.001 512.001" xml:space="preserve">
<path style="fill:#F95428;" d="M349.652,335.883c-3.9-2.528-7.246-5.416-8.907-9.4c-3.924-9.473,3.912-21.858,3.912-32.751
	s-7.836-23.278-3.912-32.751c4.08-9.822,18.512-12.987,25.914-20.39c7.402-7.402,10.58-21.846,20.402-25.914
	c9.473-3.936,21.858,3.9,32.751,3.9c7.438,0,15.563-3.659,22.99-4.718c3.454-0.493,6.752-0.433,9.761,0.818
	c9.822,4.068,12.987,18.512,20.39,25.914c7.402,7.402,21.846,10.568,25.914,20.39c3.936,9.473-3.9,21.858-3.9,32.751
	s7.836,23.278,3.9,32.751c-4.068,9.822-18.512,12.987-25.914,20.39c-7.402,7.402-10.568,21.846-20.39,25.926
	c-9.485,3.924-21.858-3.912-32.751-3.912s-23.278,7.836-32.751,3.912c-9.822-4.08-12.999-18.524-20.402-25.926
	C362.254,342.479,355.369,339.578,349.652,335.883z"/>
<polygon style="fill:#F2F2F2;" points="407.366,44.133 485.771,157.564 485.759,157.564 332.873,157.564 407.354,44.145 
	407.354,44.133 "/>
<path style="fill:#B3B3B3;" d="M485.771,157.564l-42.97,56.294c-7.426,1.059-15.551,4.718-22.99,4.718
	c-10.893,0-23.278-7.836-32.751-3.9c-9.822,4.068-12.999,18.512-20.402,25.914c-7.402,7.402-21.834,10.568-25.914,20.39
	c-3.924,9.473,3.912,21.858,3.912,32.751c0,10.893-7.836,23.278-3.912,32.751c1.661,3.984,5.007,6.873,8.907,9.4L248.907,467.862
	l-0.012-0.012l83.978-310.286h152.886L485.771,157.564L485.771,157.564z"/>
<polygon style="fill:#999999;" points="407.354,44.133 407.354,44.145 332.873,157.564 247.776,44.145 247.776,44.133 "/>
<polygon style="fill:#CCCCCC;" points="247.776,44.145 332.873,157.564 162.691,157.564 "/>
<polygon style="fill:#999999;" points="332.873,157.564 248.895,467.85 248.883,467.838 162.691,157.564 "/>
<g>
	<polygon style="fill:#F2F2F2;" points="248.883,467.838 12.043,157.564 162.691,157.564 	"/>
	<polygon style="fill:#F2F2F2;" points="247.776,44.133 247.776,44.145 162.691,157.564 90.448,44.145 90.448,44.133 	"/>
</g>
<polygon style="fill:#CCCCCC;" points="90.448,44.145 162.691,157.564 12.043,157.564 "/>
<g>
	<path style="fill:#333333;" d="M450.709,262.834c-4.7-4.7-12.319-4.7-17.023,0l-44.778,44.778c-4.7,4.7-4.7,12.322,0,17.022
		c2.351,2.351,5.431,3.525,8.511,3.525c3.08,0,6.16-1.176,8.511-3.525l44.778-44.778
		C455.409,275.156,455.409,267.534,450.709,262.834z"/>
	<path style="fill:#333333;" d="M507.003,293.734c0-2.774,1.025-6.5,2.11-10.443c2.139-7.774,4.8-17.45,0.876-26.918
		c-4.054-9.775-12.957-14.776-20.109-18.795c-3.271-1.838-6.654-3.739-8.415-5.499c-1.762-1.761-3.661-5.143-5.499-8.415
		c-3.101-5.519-6.796-12.07-12.807-16.64l32.176-42.154c3.164-4.145,3.298-9.857,0.333-14.146L417.264,37.293
		c-2.248-3.252-5.948-5.192-9.902-5.192H90.444c-3.953,0-7.653,1.94-9.902,5.192L2.135,150.724
		c-2.965,4.29-2.831,10.002,0.333,14.148l236.864,310.298c0.03,0.04,0.066,0.073,0.097,0.113c0.246,0.313,0.502,0.617,0.778,0.904
		c0.063,0.065,0.129,0.123,0.191,0.185c0.226,0.226,0.461,0.442,0.704,0.649c0.106,0.09,0.213,0.178,0.321,0.265
		c0.258,0.205,0.522,0.398,0.796,0.58c0.066,0.045,0.129,0.093,0.195,0.135c0.324,0.207,0.66,0.394,1.003,0.569
		c0.12,0.061,0.242,0.119,0.365,0.176c0.266,0.125,0.538,0.241,0.814,0.347c0.11,0.042,0.217,0.088,0.327,0.126
		c0.366,0.129,0.74,0.24,1.119,0.332c0.118,0.029,0.237,0.049,0.356,0.075c0.284,0.06,0.571,0.112,0.862,0.15
		c0.143,0.019,0.286,0.04,0.431,0.054c0.341,0.035,0.685,0.055,1.033,0.06c0.06,0.001,0.118,0.011,0.177,0.011
		c0.029,0,0.058-0.005,0.088-0.005c0.384-0.002,0.762-0.028,1.137-0.066c0.144-0.014,0.286-0.035,0.428-0.055
		c0.285-0.04,0.567-0.089,0.846-0.148c0.126-0.026,0.253-0.051,0.377-0.081c0.38-0.094,0.755-0.203,1.121-0.332
		c0.101-0.036,0.2-0.079,0.301-0.118c0.282-0.108,0.56-0.226,0.832-0.354c0.125-0.059,0.249-0.119,0.373-0.182
		c0.3-0.154,0.592-0.32,0.877-0.498c0.079-0.049,0.159-0.098,0.236-0.148c0.302-0.2,0.593-0.414,0.876-0.639
		c0.108-0.087,0.213-0.176,0.319-0.266c0.23-0.196,0.453-0.402,0.668-0.616c0.077-0.076,0.156-0.148,0.231-0.226
		c0.273-0.286,0.53-0.587,0.775-0.9c0.025-0.034,0.057-0.063,0.082-0.095l94.309-123.544c2.182,1.278,4.166,2.555,5.378,3.766
		c1.761,1.761,3.661,5.143,5.498,8.415c4.019,7.153,9.02,16.055,18.795,20.109c3.533,1.465,7.092,2.012,10.573,2.012
		c5.847,0,11.471-1.547,16.345-2.888c3.943-1.084,7.667-2.11,10.442-2.11s6.498,1.025,10.444,2.11
		c7.774,2.139,17.449,4.801,26.918,0.876c9.774-4.054,14.775-12.956,18.794-20.109c1.838-3.271,3.737-6.654,5.499-8.415
		c1.761-1.761,5.143-3.661,8.415-5.499c7.152-4.019,16.055-9.02,20.109-18.796c3.925-9.467,1.264-19.143-0.876-26.917
		C508.028,300.232,507.003,296.508,507.003,293.734z M329.629,256.372c-3.926,9.468-1.264,19.144,0.876,26.919
		c1.084,3.943,2.11,7.668,2.11,10.443c0,2.773-1.025,6.498-2.11,10.442c-2.139,7.774-4.801,17.452-0.876,26.918
		c0.982,2.369,2.254,4.453,3.712,6.315l-56.809,74.421l65.548-242.225h119.353l-25.441,33.331c-1.998,0.466-3.923,0.992-5.739,1.493
		c-3.943,1.084-7.67,2.11-10.444,2.11s-6.498-1.026-10.443-2.11c-7.776-2.139-17.453-4.8-26.917-0.876
		c-9.776,4.054-14.777,12.956-18.796,20.11c-1.838,3.271-3.737,6.654-5.499,8.416c-1.761,1.761-5.143,3.661-8.415,5.498
		C342.585,241.596,333.683,246.598,329.629,256.372z M317.142,169.605l-68.393,252.741l-70.22-252.741H317.142z M186.767,145.532
		l61.012-81.335l61.012,81.335H186.767z M407.615,65.672l55.201,79.861H355.172L407.615,65.672z M332.214,136.639l-60.362-80.468
		h113.206L332.214,136.639z M163.501,136.433L112.38,56.171h111.329L163.501,136.433z M140.756,145.532H34.987l55.046-79.636
		L140.756,145.532z M153.544,169.605l67.052,241.341L36.371,169.605H153.544z M485.902,310.562c1.1,4.001,2.608,9.481,1.849,11.311
		c-0.865,2.086-5.744,4.827-9.664,7.029c-4.473,2.513-9.541,5.361-13.646,9.464c-4.103,4.104-6.951,9.174-9.464,13.646
		c-2.203,3.92-4.943,8.8-7.028,9.664c-1.831,0.758-7.31-0.749-11.312-1.849c-5.064-1.394-10.804-2.973-16.828-2.973
		c-6.024,0-11.763,1.579-16.827,2.972c-4.001,1.101-9.483,2.612-11.311,1.85c-2.085-0.864-4.827-5.743-7.029-9.663
		c-2.513-4.473-5.361-9.542-9.464-13.646c-4.103-4.103-9.173-6.951-13.646-9.464c-3.92-2.203-8.8-4.943-9.664-7.03
		c-0.76-1.831,0.749-7.31,1.849-11.311c1.394-5.064,2.973-10.804,2.973-16.828c0-6.025-1.58-11.764-2.973-16.828
		c-1.1-4.001-2.608-9.48-1.849-11.311c0.865-2.086,5.743-4.827,9.663-7.029c4.473-2.513,9.542-5.361,13.646-9.464
		c4.103-4.104,6.951-9.173,9.464-13.646c2.203-3.92,4.943-8.8,7.029-9.664c0.344-0.143,0.82-0.206,1.389-0.206
		c2.454,0,6.675,1.161,9.923,2.055c5.064,1.393,10.803,2.972,16.827,2.972c6.024,0,11.764-1.579,16.829-2.972
		c3.998-1.101,9.474-2.611,11.309-1.85c2.085,0.865,4.827,5.744,7.029,9.664c2.513,4.473,5.361,9.541,9.464,13.646
		c4.104,4.103,9.173,6.951,13.646,9.464c3.92,2.203,8.8,4.943,9.664,7.028c0.76,1.831-0.749,7.311-1.849,11.312
		c-1.394,5.064-2.973,10.804-2.973,16.828C482.931,299.758,484.509,305.498,485.902,310.562z"/>
	<circle style="fill:#333333;" cx="442.194" cy="316.123" r="12.036"/>
	<circle style="fill:#333333;" cx="397.587" cy="271.504" r="12.036"/>
</g>
</svg>