<?xml version="1.0" encoding="iso-8859-1"?>
<!-- Uploaded to: SVG Repo, www.svgrepo.com, Generator: SVG Repo Mixer Tools -->
<svg version="1.1" id="Layer_1" xmlns="http://www.w3.org/2000/svg" xmlns:xlink="http://www.w3.org/1999/xlink" 
	 viewBox="0 0 448 448" xml:space="preserve">
<path style="fill:#D3F5FF;" d="M48,84h360c6.8,0,12,5.2,12,12v224c0,6.8-5.2,12-12,12H48c-6.8,0-12-5.2-12-12V96
	C36,89.2,41.2,84,48,84z"/>
<polygon style="fill:#A1E8FD;" points="4,332 444,332 444,354.4 432,364 14,364 4,354.8 "/>
<rect x="192" y="332" style="fill:#EAFAFF;" width="68" height="12"/>
<g>
	<path style="fill:#64BCE0;" d="M40,96L40,96v224c0,4.4,3.6,8,8,8h360c4.4,0,8-3.6,8-8V96c0-4.4-3.6-8-8-8H48C43.6,88,40,91.6,40,96
		L40,96z M32,96c0-8.8,7.2-16,16-16h360c8.8,0,16,7.2,16,16v224c0,8.8-7.2,16-16,16H48c-8.8,0-16-7.2-16-16V96L32,96z"/>
	<path style="fill:#64BCE0;" d="M196,348c-6.8,0-12-5.2-12-12l0,0H8v12c0,6.8,5.2,12,12,12h408c6.8,0,12-5.2,12-12v-12H264v-8h-4h4
		v8c0,6.8-5.2,12-12,12H196z M192,328v4c0,4.4,3.6,8,8,8h48c4.4,0,8-3.6,8-8v-4h184c4.4,0,8,3.6,8,8v12c0,11.2-8.8,20-20,20H20
		c-11.2,0-20-8.8-20-20v-12c0-4.4,3.6-8,8-8H192z"/>
</g>
<g>
	<path style="fill:#E5F9FF;" d="M155.2,318.8L277.6,100h-40.8L114,318.8H155.2L155.2,318.8z"/>
	<path style="fill:#E5F9FF;" d="M272,318.8L394.8,100h-96L176,318.8h114H272z"/>
	<path style="fill:#E5F9FF;" d="M182.8,100h8.8L68.8,318.8H60L182.8,100z"/>
</g>
<path style="fill:#64BCE0;" d="M52,312c0,2.4,2,4,4,4h344c2.4,0,4-1.6,4-4V104c0-2.4-2-4-4-4H56c-2.4,0-4,1.6-4,4V312z M56,96h344
	c4.4,0,8,3.6,8,8v208c0,4.4-3.6,8-8,8H56c-4.4,0-8-3.6-8-8V104C48,99.6,51.6,96,56,96z"/>
<path style="fill:#B1E5D3;" d="M176.4,199.2c-3.2-3.2-8.4-3.2-11.2,0L154,210.4c-3.2,3.2-3.2,8,0,11.2l56.4,56.4
	c3.2,3.2,8.4,3.2,11.2,0l11.2-11.2l90.4-90.4c3.2-3.2,3.2-8.4,0-11.2L312,154c-3.2-3.2-8-3.2-11.2,0l-84.4,84L176.4,199.2z"/>
<path style="fill:#88D08B;" d="M172.4,187.2c-3.2-3.2-8.4-3.2-11.2,0L150,198.4c-3.2,3.2-3.2,8,0,11.2l56.4,56.4
	c3.2,3.2,8.4,3.2,11.2,0l11.2-11.2l90.4-90.4c3.2-3.2,3.2-8.4,0-11.2L308,142c-3.2-3.2-8-3.2-11.2,0l-84.4,84L172.4,187.2z"/>
<path style="fill:#68BD6C;" d="M169.6,190L169.6,190L169.6,190c-1.6-1.6-4.4-1.6-5.6,0l-11.2,11.2c-1.6,1.6-1.6,4,0,5.6l56.4,56.4
	c1.6,1.6,4,1.6,5.6,0L226,252c2.8-2.8,2.8-2.8,14-14c14-14,14-14,31.2-31.2C288,190,288,190,302.4,175.6c11.2-11.2,11.2-11.2,14-14
	c1.6-1.6,1.6-4,0-5.6l-11.2-11.2c-1.6-1.6-4-1.6-5.6,0l-84,84c-1.6,1.6-4,1.6-5.6,0L169.6,190z M172.4,187.2L172.4,187.2l40,39.2
	l84.4-84.4c3.2-3.2,8-3.2,11.2,0l11.2,11.2c3.2,3.2,3.2,8,0,11.2l-90.4,90.4L217.6,266c-3.2,3.2-8,3.2-11.2,0l-56.8-56.4
	c-3.2-3.2-3.2-8,0-11.2l11.2-11.2C164.4,184,169.2,184,172.4,187.2L172.4,187.2z"/>
</svg>