<?xml version="1.0" encoding="iso-8859-1"?>
<!-- Uploaded to: SVG Repo, www.svgrepo.com, Generator: SVG Repo Mixer Tools -->
<svg version="1.1" id="Layer_1" xmlns="http://www.w3.org/2000/svg" xmlns:xlink="http://www.w3.org/1999/xlink" 
	 viewBox="0 0 511.996 511.996" xml:space="preserve">
<path style="fill:#CCD1D9;" d="M170.659,202.654h-64c-5.891,0-10.664,4.781-10.664,10.672c0,0.156,0.016,0.297,0.023,0.453h-0.023
	v32h21.336v-21.781h42.664v21.328h21.335v-32C181.33,207.436,176.549,202.654,170.659,202.654z"/>
<rect x="127.998" y="177.328" style="fill:#E6E9ED;" width="21.336" height="72.89"/>
<path style="fill:#434A54;" d="M191.994,181.327c0,5.891-4.773,10.672-10.664,10.672H95.995c-5.891,0-10.664-4.781-10.664-10.672
	v-64c0-5.891,4.773-10.672,10.664-10.672h85.335c5.891,0,10.664,4.781,10.664,10.672V181.327z"/>
<path style="fill:#656D78;" d="M223.994,149.327c0,5.891-4.773,10.672-10.664,10.672H63.995c-5.891,0-10.664-4.781-10.664-10.672
	v-42.672c0-5.891,4.773-10.656,10.664-10.656H213.33c5.891,0,10.664,4.766,10.664,10.656V149.327z"/>
<polygon style="fill:#DA4453;" points="309.338,511.996 479.993,511.996 479.993,85.327 309.338,85.327 309.338,362.654 
	266.658,447.997 "/>
<path style="fill:#ED5564;" d="M53.331,127.999h426.662V42.655C479.993,19.093,460.899,0,437.337,0H95.995
	C72.433,0,53.331,19.094,53.331,42.655V127.999z"/>
<path style="fill:#E6E9ED;" d="M437.337,213.326c0,23.562-19.109,42.672-42.688,42.672c-23.562,0-42.656-19.109-42.656-42.672
	c0-23.562,19.094-42.671,42.656-42.671C418.227,170.655,437.337,189.765,437.337,213.326z"/>
<path style="fill:#656D78;" d="M501.337,501.324c0,5.891-4.781,10.672-10.688,10.672H21.331c-5.891,0-10.672-4.781-10.672-10.672
	v-42.671c0-5.891,4.781-10.656,10.672-10.656h469.318c5.906,0,10.688,4.766,10.688,10.656V501.324z"/>
<path style="fill:#434A54;" d="M490.649,490.652H21.331c-5.891,0-10.672-4.766-10.672-10.655v21.327
	c0,5.891,4.781,10.672,10.672,10.672h469.318c5.906,0,10.688-4.781,10.688-10.672v-21.327
	C501.337,485.887,496.556,490.652,490.649,490.652z"/>
<path style="fill:#E6E9ED;" d="M10.659,234.654v170.671c0,0,15.75,42.672,64,42.672c18.758,0,109.249,0,127.999,0
	c48.258,0,64-42.672,64-42.672V234.654H10.659z"/>
<path style="fill:#CCD1D9;" d="M405.337,191.999c0,5.891-4.781,10.655-10.688,10.655c-5.875,0-10.656-4.765-10.656-10.655
	s4.781-10.672,10.656-10.672C400.556,181.327,405.337,186.108,405.337,191.999z"/>
<g>
	<path style="fill:#E6E9ED;" d="M373.337,287.998c0,5.891-4.781,10.656-10.688,10.656c-5.875,0-10.656-4.766-10.656-10.656
		s4.781-10.672,10.656-10.672C368.556,277.326,373.337,282.107,373.337,287.998z"/>
	<path style="fill:#E6E9ED;" d="M405.337,287.998c0,5.891-4.781,10.656-10.688,10.656c-5.875,0-10.656-4.766-10.656-10.656
		s4.781-10.672,10.656-10.672C400.556,277.326,405.337,282.107,405.337,287.998z"/>
	<path style="fill:#E6E9ED;" d="M437.337,287.998c0,5.891-4.781,10.656-10.688,10.656c-5.875,0-10.656-4.766-10.656-10.656
		s4.781-10.672,10.656-10.672C432.556,277.326,437.337,282.107,437.337,287.998z"/>
	<path style="fill:#E6E9ED;" d="M373.337,319.998c0,5.891-4.781,10.656-10.688,10.656c-5.875,0-10.656-4.766-10.656-10.656
		s4.781-10.672,10.656-10.672C368.556,309.326,373.337,314.107,373.337,319.998z"/>
	<path style="fill:#E6E9ED;" d="M405.337,319.998c0,5.891-4.781,10.656-10.688,10.656c-5.875,0-10.656-4.766-10.656-10.656
		s4.781-10.672,10.656-10.672C400.556,309.326,405.337,314.107,405.337,319.998z"/>
	<path style="fill:#E6E9ED;" d="M437.337,319.998c0,5.891-4.781,10.656-10.688,10.656c-5.875,0-10.656-4.766-10.656-10.656
		s4.781-10.672,10.656-10.672C432.556,309.326,437.337,314.107,437.337,319.998z"/>
	<path style="fill:#E6E9ED;" d="M373.337,351.998c0,5.891-4.781,10.656-10.688,10.656c-5.875,0-10.656-4.766-10.656-10.656
		s4.781-10.672,10.656-10.672C368.556,341.326,373.337,346.107,373.337,351.998z"/>
	<path style="fill:#E6E9ED;" d="M405.337,351.998c0,5.891-4.781,10.656-10.688,10.656c-5.875,0-10.656-4.766-10.656-10.656
		s4.781-10.672,10.656-10.672C400.556,341.326,405.337,346.107,405.337,351.998z"/>
	<path style="fill:#E6E9ED;" d="M437.337,351.998c0,5.891-4.781,10.656-10.688,10.656c-5.875,0-10.656-4.766-10.656-10.656
		s4.781-10.672,10.656-10.672C432.556,341.326,437.337,346.107,437.337,351.998z"/>
</g>
<path style="fill:#434A54;" d="M138.659,319.998c-5.891,0-10.664,4.766-10.664,10.656s4.773,10.672,10.664,10.672h170.679v-21.328
	H138.659z"/>
<path style="fill:#FFCE54;" d="M426.649,383.998h-64c-5.875,0-10.656,4.766-10.656,10.656s4.781,10.671,10.656,10.671h64
	c5.906,0,10.688-4.781,10.688-10.671C437.337,388.764,432.556,383.998,426.649,383.998z"/>
<path style="fill:#DA4453;" d="M53.331,63.999v21.328h32c0,5.891,4.773,10.672,10.664,10.672s10.664-4.781,10.664-10.672h21.336
	c0,5.891,4.773,10.672,10.664,10.672s10.672-4.781,10.672-10.672h21.328c0,5.891,4.78,10.672,10.671,10.672
	s10.664-4.781,10.664-10.672h21.336c0,5.891,4.773,10.672,10.664,10.672s10.664-4.781,10.664-10.672h21.336
	c0,5.891,4.774,10.672,10.664,10.672c5.898,0,10.68-4.781,10.68-10.672h21.312c0,5.891,4.781,10.672,10.688,10.672
	c5.875,0,10.656-4.781,10.656-10.672h21.344c0,5.891,4.766,10.672,10.655,10.672c5.891,0,10.656-4.781,10.656-10.672h21.344
	c0,5.891,4.781,10.672,10.656,10.672c5.906,0,10.688-4.781,10.688-10.672h21.312c0,5.891,4.781,10.672,10.688,10.672
	c5.875,0,10.656-4.781,10.656-10.672h32V63.999H53.331z"/>
</svg>